<?xml version="1.0" encoding="utf-8"?>
<!-- Generator: Adobe Illustrator 18.1.0, SVG Export Plug-In . SVG Version: 6.00 Build 0)  -->
<!DOCTYPE svg PUBLIC "-//W3C//DTD SVG 1.1//EN" "http://www.w3.org/Graphics/SVG/1.1/DTD/svg11.dtd">
<svg version="1.1" id="Layer_1" xmlns="http://www.w3.org/2000/svg" xmlns:xlink="http://www.w3.org/1999/xlink" x="0px" y="0px"
	 viewBox="143.2 0 937 792" enable-background="new 143.2 0 937 792" xml:space="preserve">
<g>
	<path fill="#FFFFFF" d="M1054.7,0H886.4h-0.7c-2.1,0-4.1,0.7-6.2,1.4c-1.4,0.7-2.7,0.7-4.1,1.4s-2.7,2.1-4.1,2.7s-2.7,1.4-3.4,2.7
		c-1.4,0.7-1.4,2.1-2.7,3.4s-2.1,3.4-2.7,4.8c0,0,0,0,0,0.7L651.5,588H240c-14.4,0-26.1,11.7-26.1,26.1s11.7,26.1,26.1,26.1h429.3
		c3.4,0,6.2-0.7,8.9-2.1c0.7-0.7,2.1-0.7,2.7-1.4c2.1-0.7,3.4-2.1,5.5-3.4c0.7-0.7,1.4-1.4,2.1-2.1c1.4-1.4,2.7-3.4,3.4-5.5
		c0.7-0.7,0.7-1.4,1.4-2.1c0,0,0,0,0-0.7L903.6,52.2H1054c14.4,0,26.1-11.7,26.1-26.1C1080.8,11.7,1069.1,0,1054.7,0z"/>
	<g>
		<path fill="#FFFFFF" d="M362.3,732.9c0-33-26.1-59.1-59.1-59.1s-59.1,26.1-59.1,59.1c0,32.3,26.1,59.1,59.1,59.1
			C336.2,792,362.3,765.2,362.3,732.9z"/>
		<path fill="#FFFFFF" d="M674.2,732.9c0-33-26.1-59.1-59.1-59.1c-32.3,0-59.1,26.1-59.1,59.1c0,32.3,26.8,59.1,59.1,59.1
			C648.1,792,674.2,765.2,674.2,732.9z"/>
	</g>
	<path fill="#FFFFFF" d="M143.2,215.7l61.1,331.1h414.2l145.6-419L143.2,215.7z M565.9,379H442.5v125h-19.2V379h-124v-16.1h124
		V237.3h19.2v125.5h123.5V379z"/>
</g>
</svg>
